<svg xmlns="http://www.w3.org/2000/svg" version="1.1" xmlns:xlink="http://www.w3.org/1999/xlink"
  xmlns:svgjs="http://svgjs.com/svgjs" width="512" height="512" x="0" y="0" viewBox="0 0 512 512"
  style="enable-background:new 0 0 512 512" xml:space="preserve" class="">
  <g transform="matrix(1.0699999999999998,0,0,1.0699999999999998,-17.91999999999996,-17.91999999999996)">
    <path fill="#d6062f"
      d="M226 76h270l-10 20 10 20v40l-10 20 10 20v40l-10 20 10 20v40l-10 20 10 20v40l-10 20 10 20H16l10-20-10-20v-40l10-20-10-20v-40l10-20-10-20z"
      data-original="#d6062f"></path>
    <path fill="#ffffff"
      d="M16 396h480v40H16zM16 316h480v40H16zM16 236h480v40H16zM226 156h270v40H226zM226 76h270v40H226z"
      data-original="#ffffff" class=""></path>
    <path fill="#2956b0" d="M16 76h210v160H16z" data-original="#2956b0" class=""></path>
    <g fill="#fff">
      <path
        d="m51.175 85.37 3.175 9.772h10.275l-8.313 6.04 3.176 9.772-8.313-6.04-8.313 6.04 3.176-9.772-8.313-6.04H48zM97.725 85.37l3.175 9.772h10.275l-8.313 6.04 3.176 9.772-8.313-6.04-8.312 6.04 3.175-9.772-8.313-6.04H94.55zM144.275 85.37l3.175 9.772h10.275l-8.312 6.04 3.175 9.772-8.313-6.04-8.312 6.04 3.175-9.772-8.313-6.04H141.1zM190.825 85.37 194 95.142h10.275l-8.312 6.04 3.175 9.772-8.313-6.04-8.312 6.04 3.175-9.772-8.313-6.04h10.275zM51.175 123.929l3.175 9.772h10.275l-8.313 6.039 3.176 9.772-8.313-6.039-8.313 6.039 3.176-9.772-8.313-6.039H48zM97.725 123.929l3.175 9.772h10.275l-8.313 6.039 3.176 9.772-8.313-6.039-8.312 6.039 3.175-9.772-8.313-6.039H94.55zM144.275 123.929l3.175 9.772h10.275l-8.312 6.039 3.175 9.772-8.313-6.039-8.312 6.039 3.175-9.772-8.313-6.039H141.1zM190.825 123.929l3.175 9.772h10.275l-8.312 6.039 3.175 9.772-8.313-6.039-8.312 6.039 3.175-9.772-8.313-6.039h10.275zM51.175 162.488l3.175 9.772h10.275l-8.313 6.039 3.176 9.772-8.313-6.039-8.313 6.039 3.176-9.772-8.313-6.039H48zM97.725 162.488l3.175 9.772h10.275l-8.313 6.039 3.176 9.772-8.313-6.039-8.312 6.039 3.175-9.772-8.313-6.039H94.55zM144.275 162.488l3.175 9.772h10.275l-8.312 6.039 3.175 9.772-8.313-6.039-8.312 6.039 3.175-9.772-8.313-6.039H141.1zM190.825 162.488 194 172.26h10.275l-8.312 6.039 3.175 9.772-8.313-6.039-8.312 6.039 3.175-9.772-8.313-6.039h10.275zM51.175 201.046l3.175 9.772h10.275l-8.313 6.04 3.176 9.772-8.313-6.04-8.313 6.04 3.176-9.772-8.313-6.04H48zM97.725 201.046l3.175 9.772h10.275l-8.313 6.04 3.176 9.772-8.313-6.04-8.312 6.04 3.175-9.772-8.313-6.04H94.55zM144.275 201.046l3.175 9.772h10.275l-8.312 6.04 3.175 9.772-8.313-6.04-8.312 6.04 3.175-9.772-8.313-6.04H141.1zM190.825 201.046l3.175 9.772h10.275l-8.312 6.04 3.175 9.772-8.313-6.04-8.312 6.04 3.175-9.772-8.313-6.04h10.275z"
        fill="#ffffff" data-original="#ffffff" class=""></path>
    </g>
  </g>
</svg>