<svg xmlns="http://www.w3.org/2000/svg" xmlns:xlink="http://www.w3.org/1999/xlink" width="1350" zoomAndPan="magnify" viewBox="0 0 1012.5 314.999992" height="420" preserveAspectRatio="xMidYMid meet" version="1.0"><defs><g/></defs><g fill="rgb(32.939148%, 32.939148%, 32.939148%)" fill-opacity="1"><g transform="translate(263.179716, 262.551653)"><g><path d="M 47.359375 0 L 24.375 0 L 24.375 -151.765625 L 47.359375 -151.765625 Z M 22.4375 -192.890625 C 22.4375 -198.148438 23.726562 -202.003906 26.3125 -204.453125 C 28.894531 -206.898438 32.125 -208.125 36 -208.125 C 39.695312 -208.125 42.882812 -206.875 45.5625 -204.375 C 48.238281 -201.882812 49.578125 -198.054688 49.578125 -192.890625 C 49.578125 -187.722656 48.238281 -183.867188 45.5625 -181.328125 C 42.882812 -178.785156 39.695312 -177.515625 36 -177.515625 C 32.125 -177.515625 28.894531 -178.785156 26.3125 -181.328125 C 23.726562 -183.867188 22.4375 -187.722656 22.4375 -192.890625 Z M 22.4375 -192.890625 "/></g></g></g><g fill="rgb(32.939148%, 32.939148%, 32.939148%)" fill-opacity="1"><g transform="translate(334.910638, 262.551653)"><g><path d="M 45.96875 -151.765625 L 45.96875 -53.3125 C 45.96875 -40.9375 48.78125 -31.703125 54.40625 -25.609375 C 60.039062 -19.523438 68.863281 -16.484375 80.875 -16.484375 C 96.75 -16.484375 108.351562 -20.820312 115.6875 -29.5 C 123.03125 -38.175781 126.703125 -52.34375 126.703125 -72 L 126.703125 -151.765625 L 149.6875 -151.765625 L 149.6875 0 L 130.71875 0 L 127.390625 -20.359375 L 126.15625 -20.359375 C 121.445312 -12.878906 114.914062 -7.15625 106.5625 -3.1875 C 98.207031 0.78125 88.671875 2.765625 77.953125 2.765625 C 59.492188 2.765625 45.671875 -1.617188 36.484375 -10.390625 C 27.296875 -19.160156 22.703125 -33.191406 22.703125 -52.484375 L 22.703125 -151.765625 Z M 45.96875 -151.765625 "/></g></g><g transform="translate(508.975844, 262.551653)"><g><path d="M 95 -154.265625 C 114.9375 -154.265625 130.421875 -147.453125 141.453125 -133.828125 C 152.484375 -120.210938 158 -100.941406 158 -76.015625 C 158 -51.097656 152.4375 -31.738281 141.3125 -17.9375 C 130.1875 -4.132812 114.75 2.765625 95 2.765625 C 85.113281 2.765625 76.085938 0.941406 67.921875 -2.703125 C 59.753906 -6.347656 52.898438 -11.957031 47.359375 -19.53125 L 45.703125 -19.53125 L 40.84375 0 L 24.375 0 L 24.375 -215.46875 L 47.359375 -215.46875 L 47.359375 -163.125 C 47.359375 -151.394531 46.988281 -140.867188 46.25 -131.546875 L 47.359375 -131.546875 C 58.066406 -146.691406 73.945312 -154.265625 95 -154.265625 Z M 91.671875 -135.015625 C 75.972656 -135.015625 64.660156 -130.515625 57.734375 -121.515625 C 50.816406 -112.515625 47.359375 -97.347656 47.359375 -76.015625 C 47.359375 -54.691406 50.910156 -39.4375 58.015625 -30.25 C 65.128906 -21.070312 76.53125 -16.484375 92.21875 -16.484375 C 106.34375 -16.484375 116.867188 -21.628906 123.796875 -31.921875 C 130.722656 -42.210938 134.1875 -57.003906 134.1875 -76.296875 C 134.1875 -96.054688 130.722656 -110.78125 123.796875 -120.46875 C 116.867188 -130.164062 106.160156 -135.015625 91.671875 -135.015625 Z M 91.671875 -135.015625 "/></g></g><g transform="translate(682.764097, 262.551653)"><g><path d="M 155.375 -76.015625 C 155.375 -51.273438 149.140625 -31.957031 136.671875 -18.0625 C 124.210938 -4.175781 106.992188 2.765625 85.015625 2.765625 C 71.453125 2.765625 59.40625 -0.414062 48.875 -6.78125 C 38.351562 -13.15625 30.226562 -22.296875 24.5 -34.203125 C 18.78125 -46.109375 15.921875 -60.046875 15.921875 -76.015625 C 15.921875 -100.765625 22.101562 -120.035156 34.46875 -133.828125 C 46.84375 -147.628906 64.015625 -154.53125 85.984375 -154.53125 C 107.222656 -154.53125 124.097656 -147.46875 136.609375 -133.34375 C 149.117188 -119.21875 155.375 -100.109375 155.375 -76.015625 Z M 39.734375 -76.015625 C 39.734375 -56.628906 43.609375 -41.859375 51.359375 -31.703125 C 59.117188 -21.554688 70.523438 -16.484375 85.578125 -16.484375 C 100.617188 -16.484375 112.039062 -21.535156 119.84375 -31.640625 C 127.644531 -41.742188 131.546875 -56.535156 131.546875 -76.015625 C 131.546875 -95.316406 127.644531 -109.972656 119.84375 -119.984375 C 112.039062 -130.003906 100.523438 -135.015625 85.296875 -135.015625 C 70.253906 -135.015625 58.898438 -130.070312 51.234375 -120.1875 C 43.566406 -110.3125 39.734375 -95.585938 39.734375 -76.015625 Z M 39.734375 -76.015625 "/></g></g><g transform="translate(854.05977, 262.551653)"><g><path d="M 155.375 -76.015625 C 155.375 -51.273438 149.140625 -31.957031 136.671875 -18.0625 C 124.210938 -4.175781 106.992188 2.765625 85.015625 2.765625 C 71.453125 2.765625 59.40625 -0.414062 48.875 -6.78125 C 38.351562 -13.15625 30.226562 -22.296875 24.5 -34.203125 C 18.78125 -46.109375 15.921875 -60.046875 15.921875 -76.015625 C 15.921875 -100.765625 22.101562 -120.035156 34.46875 -133.828125 C 46.84375 -147.628906 64.015625 -154.53125 85.984375 -154.53125 C 107.222656 -154.53125 124.097656 -147.46875 136.609375 -133.34375 C 149.117188 -119.21875 155.375 -100.109375 155.375 -76.015625 Z M 39.734375 -76.015625 C 39.734375 -56.628906 43.609375 -41.859375 51.359375 -31.703125 C 59.117188 -21.554688 70.523438 -16.484375 85.578125 -16.484375 C 100.617188 -16.484375 112.039062 -21.535156 119.84375 -31.640625 C 127.644531 -41.742188 131.546875 -56.535156 131.546875 -76.015625 C 131.546875 -95.316406 127.644531 -109.972656 119.84375 -119.984375 C 112.039062 -130.003906 100.523438 -135.015625 85.296875 -135.015625 C 70.253906 -135.015625 58.898438 -130.070312 51.234375 -120.1875 C 43.566406 -110.3125 39.734375 -95.585938 39.734375 -76.015625 Z M 39.734375 -76.015625 "/></g></g></g><g fill="rgb(32.159424%, 44.309998%, 100%)" fill-opacity="1"><g transform="translate(-13.874998, 309.247647)"><g><path d="M 271.859375 -284.359375 C 273.296875 -277.753906 273.507812 -271.078125 272.5 -264.328125 C 271.5 -257.578125 270.140625 -251.472656 268.421875 -246.015625 C 264.972656 -234.804688 260.945312 -222.304688 256.34375 -208.515625 C 251.75 -194.734375 247.15625 -180.945312 242.5625 -167.15625 C 237.96875 -153.375 233.515625 -140.378906 229.203125 -128.171875 C 224.898438 -115.960938 221.3125 -105.835938 218.4375 -97.796875 C 215.5625 -90.328125 212.546875 -81.851562 209.390625 -72.375 C 206.234375 -62.894531 202.425781 -53.628906 197.96875 -44.578125 C 193.519531 -35.535156 188.347656 -27.28125 182.453125 -19.8125 C 176.566406 -12.34375 169.460938 -6.890625 161.140625 -3.453125 C 152.804688 -0.00390625 145.191406 0.785156 138.296875 -1.078125 C 131.398438 -2.941406 125.222656 -6.382812 119.765625 -11.40625 C 114.316406 -16.4375 109.363281 -22.757812 104.90625 -30.375 C 100.457031 -37.988281 96.507812 -45.816406 93.0625 -53.859375 C 89.613281 -61.898438 86.453125 -69.722656 83.578125 -77.328125 C 80.710938 -84.941406 78.128906 -91.476562 75.828125 -96.9375 C 66.921875 -116.46875 58.878906 -137.144531 51.703125 -158.96875 C 44.523438 -180.800781 37.203125 -201.628906 29.734375 -221.453125 C 27.722656 -227.203125 25.421875 -234.164062 22.828125 -242.34375 C 20.242188 -250.53125 18.59375 -258.71875 17.875 -266.90625 C 17.15625 -275.09375 18.085938 -282.5625 20.671875 -289.3125 C 23.265625 -296.0625 28.722656 -300.726562 37.046875 -303.3125 C 38.773438 -303.882812 40.570312 -304.382812 42.4375 -304.8125 C 44.300781 -305.25 46.097656 -305.613281 47.828125 -305.90625 C 49.835938 -305.90625 51.703125 -305.757812 53.421875 -305.46875 C 55.148438 -305.175781 57.019531 -304.457031 59.03125 -303.3125 C 60.46875 -302.738281 61.898438 -302.09375 63.328125 -301.375 C 64.765625 -300.65625 66.0625 -299.722656 67.21875 -298.578125 C 68.363281 -297.140625 69.4375 -295.703125 70.4375 -294.265625 C 71.445312 -292.828125 72.523438 -291.390625 73.671875 -289.953125 C 74.535156 -287.941406 75.328125 -286.144531 76.046875 -284.5625 C 76.765625 -282.988281 77.410156 -281.484375 77.984375 -280.046875 C 78.554688 -278.035156 79.269531 -276.238281 80.125 -274.65625 C 80.988281 -273.082031 81.710938 -271.578125 82.296875 -270.140625 L 84.875 -262.8125 L 146.921875 -85.734375 L 208.09375 -262.390625 L 211.109375 -269.703125 C 211.679688 -271.140625 212.253906 -272.648438 212.828125 -274.234375 C 213.410156 -275.816406 213.988281 -277.613281 214.5625 -279.625 C 215.132812 -281.050781 215.78125 -282.554688 216.5 -284.140625 C 217.21875 -285.722656 218.148438 -287.375 219.296875 -289.09375 C 220.160156 -290.53125 221.09375 -292.035156 222.09375 -293.609375 C 223.101562 -295.191406 224.179688 -296.703125 225.328125 -298.140625 C 226.191406 -299.296875 227.269531 -300.300781 228.5625 -301.15625 C 229.851562 -302.019531 231.070312 -302.738281 232.21875 -303.3125 C 234.519531 -304.457031 236.601562 -305.175781 238.46875 -305.46875 C 240.332031 -305.757812 241.984375 -305.90625 243.421875 -305.90625 C 245.148438 -305.613281 246.945312 -305.25 248.8125 -304.8125 C 250.675781 -304.382812 252.472656 -303.882812 254.203125 -303.3125 C 259.660156 -301.875 263.75 -299.429688 266.46875 -295.984375 C 269.195312 -292.535156 270.992188 -288.660156 271.859375 -284.359375 Z M 271.859375 -284.359375 "/></g></g></g></svg>