<svg xmlns="http://www.w3.org/2000/svg" version="1.1" xmlns:xlink="http://www.w3.org/1999/xlink"
    xmlns:svgjs="http://svgjs.com/svgjs" width="512" height="512" x="0" y="0" viewBox="0 0 66 66"
    style="enable-background:new 0 0 512 512" xml:space="preserve" class="">
    <g transform="matrix(1.03,0,0,1.03,-0.9899978184700018,-0.990000000000002)">
        <g fill="#fc6">
            <path
                d="m27.091 21.606-24.697 5.64a1.016 1.016 0 0 0-.455 1.744L6.4 33.025 33 26.951zM63.606 27.246l-24.697-5.64L33 26.951l26.599 6.074 4.462-4.036a1.015 1.015 0 0 0-.455-1.743z"
                fill="#ffcc66" data-original="#ffcc66"></path>
        </g>
        <path fill="#e7b95d" d="m59.6 33.029-26.599 6.069-26.6-6.069 26.6-6.076z" data-original="#e7b95d" class="">
        </path>
        <path fill="#e6e6e6" d="m25.805 13.195-3.01 4.403H12.498l2.978-4.403z" data-original="#e6e6e6" class=""></path>
        <path fill="#b3b3b3" d="M22.793 17.606V42.57h5.356a.657.657 0 0 0 .657-.657V17.606z" data-original="#b3b3b3"
            class=""></path>
        <g fill="#ccc">
            <path d="M12.498 17.606v24.308c0 .363.294.657.657.657h9.638V17.606zM22.792 17.606l3.007-4.411 3.007 4.411z"
                fill="#cccccc" data-original="#cccccc" class=""></path>
        </g>
        <path fill="#cccccc"
            d="M25.142 10.922h-9.01a.657.657 0 0 0-.657.657v1.616h10.323v-1.617a.655.655 0 0 0-.656-.656z"
            data-original="#cccccc" class=""></path>
        <path fill="#666666"
            d="M48.073 11.693h-5.119a.511.511 0 0 0-.511.512v6.549h6.142v-6.549a.513.513 0 0 0-.512-.512z"
            data-original="#666666" class=""></path>
        <path fill="#3ab7fc"
            d="M50.938 18.754H40.089a1.97 1.97 0 0 0-1.97 1.97V40.04a1.97 1.97 0 0 0 1.97 1.97h10.849a1.97 1.97 0 0 0 1.97-1.97V20.724a1.97 1.97 0 0 0-1.97-1.97z"
            data-original="#3ab7fc" class=""></path>
        <circle cx="45.513" cy="31.83" r="4.43" fill="#ffffff" data-original="#ffffff" class=""></circle>
        <path fill="#666666"
            d="M36.012 11.744V1.145h-5.506v10.599a7.08 7.08 0 0 0-4.327 6.524v22.371c0 .758.615 1.372 1.373 1.372h11.415c.758 0 1.373-.614 1.373-1.372V18.267a7.08 7.08 0 0 0-4.328-6.523z"
            data-original="#666666" class=""></path>
        <path fill="#ffffff" d="M28.806 17.956h8.907v22.111h-8.907z" data-original="#ffffff" class=""></path>
        <path fill="#ed7161"
            d="M35.91 1h-5.303a.53.53 0 0 0-.53.53v7.154c0 .293.237.53.53.53h5.303a.53.53 0 0 0 .53-.53V1.53a.53.53 0 0 0-.53-.53z"
            data-original="#ed7161" class=""></path>
        <path fill="#d56455" d="M30.078 2.998h6.362v1.835h-6.362z" data-original="#d56455" class=""></path>
        <path fill="#e7b95d" d="M6.401 33.025v24.306a2 2 0 0 0 1.555 1.95L33 65V39.099z" data-original="#e7b95d"
            class=""></path>
        <path fill="#e0ae55" d="M33 39.099V65l25.045-5.719a2.001 2.001 0 0 0 1.555-1.95V33.025z"
            data-original="#e0ae55"></path>
        <g fill="#fc6">
            <path
                d="M64.536 39.408 59.6 33.025 33 39.099l5.909 7.641 25.049-5.72a1.016 1.016 0 0 0 .578-1.612zM6.4 33.025l-4.936 6.382a1.016 1.016 0 0 0 .577 1.612l25.049 5.72 5.91-7.64z"
                fill="#ffcc66" data-original="#ffcc66"></path>
        </g>
    </g>
</svg>