<svg xmlns="http://www.w3.org/2000/svg" version="1.1" xmlns:xlink="http://www.w3.org/1999/xlink"
    xmlns:svgjs="http://svgjs.com/svgjs" width="512" height="512" x="0" y="0" viewBox="0 0 512 512"
    style="enable-background:new 0 0 512 512" xml:space="preserve" class="">
    <g>
        <path fill="#ffc347"
            d="m496.13 171.44-60.37-145.9a7.984 7.984 0 0 0-6.28-4.86c-.01 0-.01-.01-.02-.01L280.03.07c-2.46-.34-4.94.48-6.71 2.22L25.99 245.77c-14.16 13.96-14.32 36.84-.36 51l59.13 59.9-2.01 3.47c-4.98 8.63-6.3 18.7-3.71 28.37s8.78 17.74 17.43 22.73l166.09 95.75c5.88 3.4 12.31 5.01 18.66 5.01 12.94 0 25.55-6.71 32.49-18.71l113.53-196.4c9.13 7.73 18.36 11.77 27.15 11.77 2.46 0 4.88-.31 7.25-.95 14.28-3.83 24.35-18.76 28.35-42.05 3.46-20.1 2.32-45.52-3.15-71.9l8.83-15.27a7.989 7.989 0 0 0 .46-7.05zm-128.84-71.06c3.14-5.43 8.85-8.47 14.73-8.47 2.88 0 5.8.73 8.47 2.27 3.93 2.26 6.73 5.92 7.91 10.29 1.17 4.37.57 8.93-1.7 12.85-2.3 3.98-5.99 6.67-10.11 7.82.71-5.02 1.72-9.69 3.04-13.9 1.32-4.22-1.03-8.7-5.24-10.03-4.22-1.32-8.71 1.03-10.02 5.24-1.46 4.67-2.6 9.78-3.41 15.25a16.845 16.845 0 0 1-5.36-8.48c-1.18-4.35-.58-8.92 1.69-12.84zm90.21 191.89c-6.05 1.61-13.9-1.85-22.11-9.49l38.88-67.26c5.4 42.56-3.17 73.1-16.77 76.75z"
            data-original="#ffc347" class=""></path>
        <path fill="#e6f4f4"
            d="M345.33 243.93c-2.68-10.02-8.82-19.12-17.25-25.85l7.26-12.56c2.21-3.83.9-8.72-2.92-10.93s-8.72-.9-10.93 2.92l-7.26 12.57c-21.5-8.42-45.59-1.61-56.37 17.05-7.43 12.85-8.28 25.2-2.52 36.7 3.79 7.56 9.92 13.88 16.37 19.82l-27.94 48.34c-4.34-3.94-7.57-8.78-9.37-14.13-2.49-7.41-1.89-14.91 1.7-21.12 2.21-3.83.9-8.72-2.93-10.93s-8.72-.9-10.93 2.93c-5.91 10.24-6.98 22.39-3.01 34.22 3.03 9.02 8.75 17 16.41 23.1l-7.24 12.53a8.004 8.004 0 0 0 2.92 10.93c1.26.73 2.64 1.07 4 1.07 2.76 0 5.45-1.43 6.93-4l7.25-12.55c6.03 2.37 12.35 3.61 18.65 3.61 3.22 0 6.43-.32 9.58-.96 12.24-2.48 22.23-9.49 28.14-19.72 7.43-12.85 8.28-25.2 2.52-36.7-3.79-7.56-9.92-13.88-16.37-19.82l27.92-48.3c4.83 4.4 8.33 9.93 9.93 15.91 1.82 6.8 1.02 13.66-2.26 19.32-2.21 3.82-.91 8.72 2.91 10.93s8.72.91 10.93-2.91c5.43-9.36 6.8-20.53 3.88-31.47zm-73.63-8.79c6.42-11.11 20.78-15.31 34.38-10.99l-26.15 45.24c-11.57-11.19-16.5-19.96-8.23-34.25zm20.31 93.82c-3.59 6.21-9.79 10.49-17.47 12.05-5.54 1.12-11.36.75-16.93-1.03l26.17-45.27c11.57 11.19 16.5 19.96 8.23 34.25z"
            data-original="#e6f4f4"></path>
        <path fill="#efa329"
            d="M264.74 45.35a8.002 8.002 0 0 1 5.88-3.93l156.7-20.75c.73-.1 1.46-.09 2.16.01-.01 0-.01-.01-.02-.01L280.03.07c-2.46-.34-4.94.48-6.71 2.22L25.99 245.77c-14.16 13.96-14.32 36.84-.36 51l59.13 59.9z"
            data-original="#efa329"></path>
        <path fill="#f7b746"
            d="m288.41 509.61-166.09-95.75c-8.65-4.99-14.83-13.06-17.43-22.73-2.59-9.67-1.27-19.74 3.71-28.37l182-314.79a8.002 8.002 0 0 1 5.88-3.93l139.31-18.45-.02-.05a7.994 7.994 0 0 0-8.44-4.87l-156.7 20.75a8.039 8.039 0 0 0-5.88 3.93l-182 314.79c-4.98 8.63-6.3 18.7-3.71 28.37s8.78 17.74 17.43 22.73l166.09 95.75c5.88 3.4 12.31 5.01 18.66 5.01 3.19 0 6.36-.41 9.43-1.21-.76-.36-1.51-.76-2.24-1.18z"
            data-original="#f7b746" class=""></path>
        <path fill="#e59828"
            d="M51.49 299.39c-13.96-14.16-13.8-37.04.36-51L299.18 4.91c.83-.81 1.81-1.42 2.87-1.8L280.03.07c-2.46-.34-4.94.48-6.71 2.22L25.99 245.77c-14.16 13.96-14.32 36.84-.36 51l59.13 59.9 8.6-14.87z"
            data-original="#e59828"></path>
        <path fill="#d0dddd"
            d="M474.27 215.51c5.4 42.57-3.17 73.1-16.78 76.75-8.4 2.24-20.27-5.31-31.74-20.21-13.29-17.25-24.71-42.04-32.15-69.8-9.38-34.98-10.87-69.01-3.98-91.01 1.32-4.22-1.03-8.7-5.24-10.03-4.22-1.32-8.71 1.03-10.02 5.24-7.76 24.78-6.34 62.14 3.8 99.93 7.98 29.76 20.39 56.54 34.93 75.42 13.53 17.56 27.93 26.85 41.3 26.85 2.46 0 4.88-.31 7.25-.95 14.28-3.83 24.35-18.76 28.35-42.05 3.46-20.1 2.32-45.52-3.15-71.9z"
            data-original="#d0dddd" class=""></path>
        <path fill="#f7b746"
            d="M370.95 121.71a16.845 16.845 0 0 1-5.36-8.48c-1.17-4.37-.57-8.93 1.7-12.85 3.14-5.43 8.85-8.47 14.73-8.47 2.88 0 5.8.73 8.47 2.27 3.93 2.26 6.73 5.92 7.91 10.29 1.17 4.37.57 8.93-1.7 12.85-2.3 3.98-5.99 6.67-10.11 7.82-.72 5.13-1.13 10.64-1.22 16.45 10.16-1.06 19.69-6.78 25.18-16.26 4.41-7.62 5.58-16.5 3.3-25s-7.74-15.61-15.37-20.01c-15.75-9.08-35.95-3.67-45.04 12.06-4.41 7.62-5.58 16.5-3.3 25s7.74 15.61 15.37 20.01c1.29.75 2.62 1.39 3.96 1.95.17-6.2.66-12.1 1.48-17.63z"
            data-original="#f7b746" class=""></path>
    </g>
</svg>