<svg xmlns="http://www.w3.org/2000/svg" version="1.1" xmlns:xlink="http://www.w3.org/1999/xlink" xmlns:svgjs="http://svgjs.com/svgjs" x="0" y="0" style="enable-background:new 0 0 512 512" xml:space="preserve" class="" viewBox="0.21 1.44 59.57 57.13"><g transform="matrix(1.3199999999999998,0,0,1.3199999999999998,-9.600000152587885,-9.600048217773406)"><g><g><g><g><g><g><path d="m51.7377281 41.8985672c-.7803459-.0940018-1.3821068-.7615814-1.3821068-1.5419846 0-.7897606.6017609-1.4479294 1.3821068-1.5419884.2632904-.0375862.5077591-.1785851.6581726-.4042892.1598206-.2162323.2068787-.4888802.1410561-.7521706-.2820587-1.1846924-.7521706-2.3129196-1.3915749-3.3566132-.1409988-.225647-.3666458-.3854675-.6299362-.4324684-.2632332-.0470581-.5359344.0187645-.7427597.1879997-.6299362.4889336-1.5137482.4325256-2.0685081-.1221771-.55476-.55476-.6111717-1.4385757-.1222343-2.0685101.1692352-.2068806.2350578-.4795246.1880569-.7428169-.0470009-.2632332-.2068787-.4982891-.4325256-.6299343-1.0436363-.6487598-2.1719208-1.1094608-3.356617-1.3915176-.2632332-.0658226-.5358772-.0188236-.7521706.1409988-.2256432.1504688-.3666992.3855247-.4042892.6581707-.093998.7804031-.7521706 1.3821621-1.5419846 1.3821621-.7803459 0-1.4479294-.601759-1.5419273-1.3821621-.0376472-.272646-.1786461-.5077019-.3949394-.6581707-.2256432-.1598225-.4982872-.2068214-.7615776-.1409988-1.1846962.2820568-2.3129234.7427578-3.356617 1.3915176-.225647.1316452-.3854675.3667011-.4324684.6299343-.0470009.2632923.0187645.5359364.1880569.7428169.4888802.6299343.4418793 1.5137501-.1128807 2.0685101-.5641136.5547028-1.4479294.6111107-2.0684509.1221771-.2162933-.1692352-.4889374-.2350578-.7522278-.1879997-.2632351.0470009-.4888802.2068214-.6299362.4324684-.6393471 1.0436935-1.1094608 2.1719208-1.3915176 3.3566132-.0658226.2632904-.0094109.5359383.1410007.7521706.1504669.2257042.3949356.366703.6581688.4042892.7898159.094059 1.3821621.7522278 1.3821621 1.5419884 0 .7804031-.5923462 1.4479828-1.3821621 1.5419846-.2632332.0375862-.5077019.1786461-.6581688.3948784-.1504116.225647-.2068233.4983482-.1410007.7615814.2820568 1.1846962.7521706 2.3129768 1.3915176 3.356617.1410561.2256432.3667011.3855247.6299362.4325256.2632904.0469971.5359344-.0188255.7522278-.1880569.6205215-.4889374 1.5043373-.4418793 2.0684509.1128197.55476.55476.6017609 1.4479294.1128807 2.068512-.1692924.2162323-.2350578.4889374-.1880569.7521706.0470009.2632904.2068214.4889336.4324684.6299362 1.0436935.6394043 2.1719208 1.1095161 3.356617 1.3915749.0752335.0187645.1504669.0281754.2256432.0281754.1880569 0 .3761139-.0564117.5359344-.1692352.2162933-.1504097.3572922-.3948784.3949394-.6581688.093998-.7897568.7615814-1.3821068 1.5419273-1.3821068.789814 0 1.4479866.59235 1.5419846 1.3821068.03759.2632904.1786461.5077591.4042892.6581688.2162933.1504707.4889374.2068825.7521706.1410599 1.1846962-.2820587 2.3129807-.7521706 3.356617-1.3915749.225647-.1410027.3855247-.3666458.4325256-.6299362.0470009-.2632332-.0188217-.5359383-.1880569-.7521706-.4889374-.6205826-.4325256-1.513752.1222343-2.068512.55476-.5546989 1.4385719-.601757 2.0685081-.1128197.2068253.1692314.4795265.235054.7427597.1880569.2632904-.0470009.4889374-.2068825.6299362-.4325256.6394043-1.0436401 1.1095161-2.1719208 1.3915749-3.356617.0658226-.2632332.0187645-.5359344-.1410561-.7615814-.1504135-.2162324-.3948822-.3572923-.6581726-.3948785zm-10.6207771 3.2105675c-2.6245728-.1064339-4.6816292-2.3053513-4.5870323-4.9298477.0945282-2.6245728 2.3052788-4.669796 4.9298477-4.5751953 2.6127396.0945244 4.669796 2.305275 4.5751953 4.9180145-.0945969 2.6244964-2.3053474 4.6816253-4.9180107 4.5870285z" fill="#6d7985" data-original="#2b79c2" class=""></path></g></g></g></g></g><g><g><g><g><g><g><ellipse cx="21.538" cy="15.911" fill="#3c5ff7" rx="7.522" ry="7.55" data-original="#3b4651" class=""></ellipse></g></g></g></g><g><g><g><g><path d="m33.0084305 32.0920105c-.2538795-.0752335-.5265236-.1222343-.7897568-.1222343-.1692924 0-.3385277.0188236-.4983501.0470009-.7804031.1410561-1.4667511.6111679-1.9086304 1.2975159-.742815 1.2222824-1.2881622 2.5386238-1.6078072 3.8925514-.1974678.7804031-.0375881 1.6077499.3948784 2.2471581.2538795.3760529.5923481.6863441.9966393.9025803-.3854675.2068787-.7239361.5171127-.9872265.8932266-.451292.6675797-.5923481 1.4949837-.413702 2.2377434.2914677 1.2034607.7427578 2.3599777 1.3539276 3.4506149h-21.1739216c-.5171132 0-.940227-.4231148-.940227-.9402275v-6.9388772c0-7.5782223 5.9046512-13.7461071 13.1631737-13.7461071h1.8804531c4.1840191 0 8.0483379 2.0309219 10.5117283 5.2653027-.0187683.0751762-.03759.1410007-.0470009.2162342-.0751768.4418792-.0470014.8838157.0658221 1.2975177z" fill="#3c5ff7" data-original="#3b4651" class=""></path></g></g></g></g></g></g></g></g></svg>